<svg xmlns="http://www.w3.org/2000/svg" viewBox="0 0 1440 320"><path fill="#FAF8F6" fill-opacity="1" d="M0,32L34.3,58.7C68.6,85,137,139,206,154.7C274.3,171,343,149,411,122.7C480,96,549,64,617,42.7C685.7,21,754,11,823,32C891.4,53,960,107,1029,154.7C1097.1,203,1166,245,1234,234.7C1302.9,224,1371,160,1406,128L1440,96L1440,320L1405.7,320C1371.4,320,1303,320,1234,320C1165.7,320,1097,320,1029,320C960,320,891,320,823,320C754.3,320,686,320,617,320C548.6,320,480,320,411,320C342.9,320,274,320,206,320C137.1,320,69,320,34,320L0,320Z"></path></svg>